REM DATE 2023-06-01 01:38 PM
REM RECORDED_BY "rekordbox-dj"
TITLE "REC-2023-06-01"
PERFORMER "Pavonz"
FILE "01 REC-2023-06-01.wav" WAVE
	TRACK 01 AUDIO
		TITLE "Shot You Down (Original Mix)"
		PERFORMER "Giuseppe Surace"
		FILE "/Users/andrea/Beats/NEW_SET/Giuseppe Surace - Shot You Down (Original Mix).mp3" WAVE
		INDEX 01 00:00:02
	TRACK 02 AUDIO
		TITLE "Tzu-Mani"
		PERFORMER "Aldo Cadiz"
		FILE "/Users/andrea/Beats/NEW_SET/Aldo Cadiz - Tzu-Mani.mp3" WAVE
		INDEX 01 00:03:06
	TRACK 03 AUDIO
		TITLE "Never Saw Never"
		PERFORMER "Gerd Janson"
		FILE "/Users/andrea/Beats/NEW_SET/Gerd Janson - Never Saw Never.mp3" WAVE
		INDEX 01 00:07:49
	TRACK 04 AUDIO
		TITLE "Fuego Fuego"
		PERFORMER "Alberto Dimeo"
		FILE "/Users/andrea/Beats/NEW_SET/Alberto Dimeo - Fuego Fuego.mp3" WAVE
		INDEX 01 00:10:49
	TRACK 05 AUDIO
		TITLE "Ta Gringa"
		PERFORMER "Aitor Astiz"
		FILE "/Users/andrea/Beats/NEW_SET/Aitor Astiz - Ta Gringa.mp3" WAVE
		INDEX 01 00:14:23
	TRACK 06 AUDIO
		TITLE "Parola (Black Fancy Mix)"
		PERFORMER "Donato Dozzy"
		FILE "/Users/andrea/Beats/NEW_SET/Parola (Black Fancy Mix).mp3" WAVE
		INDEX 01 00:17:18
	TRACK 07 AUDIO
		TITLE "Piano Pump"
		PERFORMER "Superlover"
		FILE "/Users/andrea/Beats/NEW_SET/Superlover - Piano Pump.mp3" WAVE
		INDEX 01 00:21:16
	TRACK 08 AUDIO
		TITLE "Don't Call Me Baby (Joshwa Remix)"
		PERFORMER "Madison Avenue"
		FILE "/Users/andrea/Beats/NEW_SET/Madison Avenue - Don't Call Me Baby (Joshwa Remix).mp3" WAVE
		INDEX 01 00:27:57
	TRACK 09 AUDIO
		TITLE "Don't Touch That Dial (feat. Yuuko Sings) (Earthworks Acid Hip-House Remix)"
		PERFORMER "Django Django"
		FILE "/Users/andrea/Beats/NEW_SET/Django Django - Don-'t Touch That Dial (feat. Yuuko Sings).mp3" WAVE
		INDEX 01 00:30:02
	TRACK 10 AUDIO
		TITLE "Tobacco Docks"
		PERFORMER "Anatta"
		FILE "/Users/andrea/Beats/NEW_SET/Anatta - Tobacco Docks.mp3" WAVE
		INDEX 01 00:32:02
	TRACK 11 AUDIO
		TITLE "Don't Touch That Dial (feat. Yuuko Sings) (Earthworks Acid Hip-House Remix)"
		PERFORMER "Django Django"
		FILE "/Users/andrea/Beats/NEW_SET/Django Django - Don-'t Touch That Dial (feat. Yuuko Sings).mp3" WAVE
		INDEX 01 00:33:24
	TRACK 12 AUDIO
		TITLE "Bad Bitch (Original Mix)"
		PERFORMER "COLOR.LOVE"
		FILE "/Users/andrea/Beats/NEW_SET/COLOR.LOVE - Bad Bitch (Original Mix).mp3" WAVE
		INDEX 01 00:36:02
	TRACK 13 AUDIO
		TITLE "ADD SUV (feat. Pharrell Williams)"
		PERFORMER "Uffie"
		FILE "/Users/andrea/Beats/NEW_SET/Uffie - ADD SUV (feat. Pharrell Williams).mp3" WAVE
		INDEX 01 00:39:17
	TRACK 14 AUDIO
		TITLE "DiscoParty - Monkey Mix"
		PERFORMER "Spellband,ManuLele"
		FILE "/Users/andrea/Beats/NEW_SET/Manulele - DiscoParty (Monkey Mix).mp3" WAVE
		INDEX 01 00:42:53
	TRACK 15 AUDIO
		TITLE "Simple Rave In a Buffalo Herd"
		PERFORMER "DANK.K"
		FILE "/Users/andrea/Beats/NEW_SET/DANK.K - Simple Rave In a Buffalo Herd.mp3" WAVE
		INDEX 01 00:47:02
	TRACK 16 AUDIO
		TITLE "Red Walls"
		PERFORMER "Mathias Kaden"
		FILE "/Users/andrea/Beats/NEW_SET/Mathias Kaden - Red Walls.mp3" WAVE
		INDEX 01 00:52:36
	TRACK 17 AUDIO
		TITLE "Super Flu 3 < Isaac"
		PERFORMER "Super Flu"
		FILE "/Users/andrea/Beats/NEW_SET/Super Flu 3 < Isaac - Super Flu 3 Isaac.mp3" WAVE
		INDEX 01 00:57:02
